<?xml version="1.0" encoding="UTF-8"?><svg xmlns="http://www.w3.org/2000/svg" xmlns:xlink="http://www.w3.org/1999/xlink" contentScriptType="text/ecmascript" width="1454.25" zoomAndPan="magnify" contentStyleType="text/css" viewBox="0 0 1454.25 1619.99993" height="1619.99993" preserveAspectRatio="xMidYMid meet" version="1.0"><defs><clipPath id="clip-0"><path d="M 0 274.023438 L 1453 274.023438 L 1453 1345.96875 L 0 1345.96875 Z M 0 274.023438 " clip-rule="nonzero"/></clipPath></defs><g clip-path="url(#clip-0)"><path fill="rgb(100%, 100%, 100%)" d="M 1429.855469 1000.179688 C 1429.855469 1012.875 1419.5 1023.230469 1406.800781 1023.230469 L 1383.75 1023.230469 C 1371.054688 1023.230469 1360.699219 1012.875 1360.699219 1000.179688 L 1360.699219 677.441406 C 1360.699219 664.746094 1371.054688 654.390625 1383.75 654.390625 L 1406.800781 654.390625 C 1419.5 654.390625 1429.855469 664.746094 1429.855469 677.441406 Z M 1280.011719 954.074219 L 1280.011719 735.074219 L 1337.644531 735.074219 L 1337.644531 954.074219 Z M 1256.960938 1080.863281 C 1256.960938 1093.558594 1246.605469 1103.917969 1233.90625 1103.917969 L 1095.59375 1103.917969 C 1092.214844 1103.917969 1088.972656 1105.402344 1086.765625 1108.011719 L 964.03125 1253.757812 L 323.328125 1253.757812 L 323.328125 688.96875 C 323.328125 676.273438 333.683594 665.917969 346.382812 665.917969 L 461.644531 665.917969 C 467.992188 665.917969 473.171875 660.738281 473.171875 654.390625 L 473.171875 469.96875 C 473.171875 457.273438 483.527344 446.917969 496.222656 446.917969 L 1084.066406 446.917969 C 1096.761719 446.917969 1107.117188 457.273438 1107.117188 469.96875 L 1107.117188 573.707031 C 1107.117188 580.054688 1112.296875 585.230469 1118.644531 585.230469 L 1233.90625 585.230469 C 1246.605469 585.230469 1256.960938 595.585938 1256.960938 608.285156 Z M 905.8125 1322.917969 L 346.382812 1322.917969 C 333.683594 1322.917969 323.328125 1312.558594 323.328125 1299.863281 L 323.328125 1276.8125 L 944.625 1276.8125 Z M 231.117188 1207.652344 L 231.117188 792.707031 L 300.277344 792.707031 L 300.277344 1207.652344 Z M 646.066406 389.285156 L 922.699219 389.285156 L 922.699219 423.863281 L 646.066406 423.863281 Z M 553.855469 343.179688 L 553.855469 320.125 C 553.855469 307.429688 564.210938 297.074219 576.90625 297.074219 L 991.855469 297.074219 C 1004.550781 297.074219 1014.90625 307.429688 1014.90625 320.125 L 1014.90625 343.179688 C 1014.90625 355.875 1004.550781 366.230469 991.855469 366.230469 L 576.90625 366.230469 C 564.210938 366.230469 553.855469 355.875 553.855469 343.179688 Z M 208.066406 1276.902344 C 208.15625 1292.027344 202.664062 1303.960938 193.386719 1308.867188 C 184.023438 1313.777344 171.101562 1311.480469 157.820312 1302.476562 L 43.320312 1187.976562 C 43.003906 1187.707031 42.734375 1187.390625 42.375 1187.121094 C 25.894531 1173.929688 23.644531 1161.503906 23.644531 1150.019531 L 23.644531 826.203125 C 23.644531 816.117188 25.085938 804.230469 42.375 790.363281 L 157.234375 698.515625 C 170.066406 689.148438 183.03125 686.628906 192.757812 691.625 C 202.4375 696.578125 208.15625 708.507812 208.066406 723.546875 Z M 1406.800781 631.335938 L 1383.75 631.335938 C 1358.3125 631.335938 1337.644531 652.003906 1337.644531 677.441406 L 1337.644531 712.023438 L 1280.011719 712.023438 L 1280.011719 608.285156 C 1280.011719 582.847656 1259.347656 562.179688 1233.90625 562.179688 L 1130.171875 562.179688 L 1130.171875 469.96875 C 1130.171875 444.53125 1109.503906 423.863281 1084.066406 423.863281 L 945.75 423.863281 L 945.75 389.285156 L 991.855469 389.285156 C 1017.292969 389.285156 1037.960938 368.617188 1037.960938 343.179688 L 1037.960938 320.125 C 1037.960938 294.6875 1017.292969 274.023438 991.855469 274.023438 L 576.90625 274.023438 C 551.46875 274.023438 530.804688 294.6875 530.804688 320.125 L 530.804688 343.179688 C 530.804688 368.617188 551.46875 389.285156 576.90625 389.285156 L 623.011719 389.285156 L 623.011719 423.863281 L 496.222656 423.863281 C 470.785156 423.863281 450.117188 444.53125 450.117188 469.96875 L 450.117188 642.863281 L 346.382812 642.863281 C 320.941406 642.863281 300.277344 663.53125 300.277344 688.96875 L 300.277344 769.652344 L 231.117188 769.652344 L 231.117188 723.636719 C 231.253906 699.730469 220.851562 680.097656 203.25 671.09375 C 185.464844 662 163.761719 665.195312 143.230469 680.1875 L 27.96875 772.355469 C 3.699219 791.851562 0.59375 811.347656 0.59375 826.203125 L 0.59375 1150.019531 C 0.59375 1164.160156 3.382812 1185.140625 27.472656 1204.679688 L 142.285156 1319.539062 C 142.78125 1320.035156 143.277344 1320.484375 143.859375 1320.84375 C 156.78125 1329.894531 170.199219 1334.441406 182.628906 1334.441406 C 190.234375 1334.441406 197.53125 1332.730469 204.105469 1329.265625 C 221.214844 1320.257812 231.296875 1300.628906 231.117188 1276.8125 L 231.117188 1230.707031 L 300.277344 1230.707031 L 300.277344 1299.863281 C 300.277344 1325.300781 320.941406 1345.96875 346.382812 1345.96875 L 911.171875 1345.96875 C 914.546875 1345.96875 917.789062 1344.484375 919.996094 1341.871094 L 1100.949219 1126.96875 L 1233.90625 1126.96875 C 1259.347656 1126.96875 1280.011719 1106.300781 1280.011719 1080.863281 L 1280.011719 977.125 L 1337.644531 977.125 L 1337.644531 1000.179688 C 1337.644531 1025.617188 1358.3125 1046.285156 1383.75 1046.285156 L 1406.800781 1046.285156 C 1432.242188 1046.285156 1452.90625 1025.617188 1452.90625 1000.179688 L 1452.90625 677.441406 C 1452.90625 652.003906 1432.242188 631.335938 1406.800781 631.335938 " fill-opacity="1" fill-rule="nonzero"/></g><path fill="rgb(100%, 100%, 100%)" d="M 922.699219 781.179688 C 922.699219 787.527344 917.519531 792.707031 911.171875 792.707031 L 380.960938 792.707031 C 374.613281 792.707031 369.433594 787.527344 369.433594 781.179688 L 369.433594 746.601562 C 369.433594 740.253906 374.613281 735.074219 380.960938 735.074219 L 911.171875 735.074219 C 917.519531 735.074219 922.699219 740.253906 922.699219 746.601562 Z M 888.117188 988.652344 L 911.171875 988.652344 C 917.519531 988.652344 922.699219 993.832031 922.699219 1000.179688 C 922.699219 1006.527344 917.519531 1011.707031 911.171875 1011.707031 L 865.066406 1011.707031 C 852.773438 1011.707031 842.011719 1001.394531 842.011719 989.644531 L 842.011719 815.757812 L 865.066406 815.757812 L 865.066406 965.601562 C 865.066406 978.117188 875.601562 988.652344 888.117188 988.652344 Z M 738.277344 988.652344 L 761.328125 988.652344 C 767.675781 988.652344 772.855469 993.832031 772.855469 1000.179688 C 772.855469 1006.527344 767.675781 1011.707031 761.328125 1011.707031 L 715.222656 1011.707031 C 702.933594 1011.707031 692.171875 1001.394531 692.171875 989.644531 L 692.171875 815.757812 L 715.222656 815.757812 L 715.222656 965.601562 C 715.222656 978.117188 725.757812 988.652344 738.277344 988.652344 Z M 588.433594 988.652344 L 611.488281 988.652344 C 617.835938 988.652344 623.011719 993.832031 623.011719 1000.179688 C 623.011719 1006.527344 617.835938 1011.707031 611.488281 1011.707031 L 565.382812 1011.707031 C 553.089844 1011.707031 542.328125 1001.394531 542.328125 989.644531 L 542.328125 815.757812 L 565.382812 815.757812 L 565.382812 965.601562 C 565.382812 978.117188 575.917969 988.652344 588.433594 988.652344 Z M 438.59375 988.652344 L 461.644531 988.652344 C 467.992188 988.652344 473.171875 993.832031 473.171875 1000.179688 C 473.171875 1006.527344 467.992188 1011.707031 461.644531 1011.707031 L 415.539062 1011.707031 C 403.246094 1011.707031 392.488281 1001.394531 392.488281 989.644531 L 392.488281 815.757812 L 415.539062 815.757812 L 415.539062 965.601562 C 415.539062 978.117188 426.074219 988.652344 438.59375 988.652344 Z M 911.171875 712.023438 L 380.960938 712.023438 C 361.871094 712.023438 346.382812 727.511719 346.382812 746.601562 L 346.382812 781.179688 C 346.382812 796.171875 356.0625 808.871094 369.433594 813.640625 L 369.433594 989.644531 C 369.433594 1014.09375 390.550781 1034.757812 415.539062 1034.757812 L 461.644531 1034.757812 C 480.734375 1034.757812 496.222656 1019.269531 496.222656 1000.179688 C 496.222656 981.089844 480.734375 965.601562 461.644531 965.601562 L 438.59375 965.601562 L 438.59375 815.757812 L 519.277344 815.757812 L 519.277344 989.644531 C 519.277344 1014.09375 540.394531 1034.757812 565.382812 1034.757812 L 611.488281 1034.757812 C 630.578125 1034.757812 646.066406 1019.269531 646.066406 1000.179688 C 646.066406 981.089844 630.578125 965.601562 611.488281 965.601562 L 588.433594 965.601562 L 588.433594 815.757812 L 669.117188 815.757812 L 669.117188 989.644531 C 669.117188 1014.09375 690.234375 1034.757812 715.222656 1034.757812 L 761.328125 1034.757812 C 780.417969 1034.757812 795.90625 1019.269531 795.90625 1000.179688 C 795.90625 981.089844 780.417969 965.601562 761.328125 965.601562 L 738.277344 965.601562 L 738.277344 815.757812 L 818.960938 815.757812 L 818.960938 989.644531 C 818.960938 1014.09375 840.078125 1034.757812 865.066406 1034.757812 L 911.171875 1034.757812 C 930.261719 1034.757812 945.75 1019.269531 945.75 1000.179688 C 945.75 981.089844 930.261719 965.601562 911.171875 965.601562 L 888.117188 965.601562 L 888.117188 815.757812 L 911.171875 815.757812 C 930.261719 815.757812 945.75 800.269531 945.75 781.179688 L 945.75 746.601562 C 945.75 727.511719 930.261719 712.023438 911.171875 712.023438 " fill-opacity="1" fill-rule="nonzero"/><path fill="rgb(100%, 100%, 100%)" d="M 1107.117188 988.652344 C 1088.027344 988.652344 1072.539062 973.164062 1072.539062 954.074219 C 1072.539062 934.984375 1088.027344 919.496094 1107.117188 919.496094 C 1126.207031 919.496094 1141.699219 934.984375 1141.699219 954.074219 C 1141.699219 973.164062 1126.207031 988.652344 1107.117188 988.652344 Z M 1107.117188 896.441406 C 1075.332031 896.441406 1049.488281 922.285156 1049.488281 954.074219 C 1049.488281 985.863281 1075.332031 1011.707031 1107.117188 1011.707031 C 1138.90625 1011.707031 1164.75 985.863281 1164.75 954.074219 C 1164.75 922.285156 1138.90625 896.441406 1107.117188 896.441406 " fill-opacity="1" fill-rule="nonzero"/><path fill="rgb(100%, 100%, 100%)" d="M 1107.117188 677.441406 C 1113.46875 677.441406 1118.644531 682.621094 1118.644531 688.96875 C 1118.644531 695.316406 1113.46875 700.496094 1107.117188 700.496094 C 1100.769531 700.496094 1095.59375 695.316406 1095.59375 688.96875 C 1095.59375 682.621094 1100.769531 677.441406 1107.117188 677.441406 Z M 1107.117188 723.546875 C 1126.207031 723.546875 1141.699219 708.058594 1141.699219 688.96875 C 1141.699219 669.878906 1126.207031 654.390625 1107.117188 654.390625 C 1088.027344 654.390625 1072.539062 669.878906 1072.539062 688.96875 C 1072.539062 708.058594 1088.027344 723.546875 1107.117188 723.546875 " fill-opacity="1" fill-rule="nonzero"/><path fill="rgb(100%, 100%, 100%)" d="M 588.433594 493.023438 C 620.222656 493.023438 646.066406 518.867188 646.066406 550.652344 C 646.066406 582.441406 620.222656 608.285156 588.433594 608.285156 C 556.648438 608.285156 530.804688 582.441406 530.804688 550.652344 C 530.804688 518.867188 556.648438 493.023438 588.433594 493.023438 Z M 588.433594 631.335938 C 632.917969 631.335938 669.117188 595.136719 669.117188 550.652344 C 669.117188 506.167969 632.917969 469.96875 588.433594 469.96875 C 543.949219 469.96875 507.75 506.167969 507.75 550.652344 C 507.75 595.136719 543.949219 631.335938 588.433594 631.335938 " fill-opacity="1" fill-rule="nonzero"/><path fill="rgb(100%, 100%, 100%)" d="M 991.855469 493.023438 C 1023.644531 493.023438 1049.488281 518.867188 1049.488281 550.652344 C 1049.488281 582.441406 1023.644531 608.285156 991.855469 608.285156 C 960.066406 608.285156 934.222656 582.441406 934.222656 550.652344 C 934.222656 518.867188 960.066406 493.023438 991.855469 493.023438 Z M 991.855469 631.335938 C 1036.339844 631.335938 1072.539062 595.136719 1072.539062 550.652344 C 1072.539062 506.167969 1036.339844 469.96875 991.855469 469.96875 C 947.371094 469.96875 911.171875 506.167969 911.171875 550.652344 C 911.171875 595.136719 947.371094 631.335938 991.855469 631.335938 " fill-opacity="1" fill-rule="nonzero"/><path fill="rgb(100%, 100%, 100%)" d="M 960.652344 581.855469 C 962.90625 584.105469 965.832031 585.230469 968.800781 585.230469 C 971.773438 585.230469 974.699219 584.105469 976.953125 581.855469 L 991.855469 566.953125 L 1006.757812 581.855469 C 1009.007812 584.105469 1011.9375 585.230469 1014.90625 585.230469 C 1017.878906 585.230469 1020.804688 584.105469 1023.058594 581.855469 C 1027.558594 577.351562 1027.558594 570.058594 1023.058594 565.554688 L 1008.152344 550.652344 L 1023.058594 535.75 C 1027.558594 531.246094 1027.558594 523.953125 1023.058594 519.449219 C 1018.554688 514.949219 1011.261719 514.949219 1006.757812 519.449219 L 991.855469 534.355469 L 976.953125 519.449219 C 972.449219 514.949219 965.15625 514.949219 960.652344 519.449219 C 956.152344 523.953125 956.152344 531.246094 960.652344 535.75 L 975.554688 550.652344 L 960.652344 565.554688 C 956.152344 570.058594 956.152344 577.351562 960.652344 581.855469 " fill-opacity="1" fill-rule="nonzero"/><path fill="rgb(100%, 100%, 100%)" d="M 557.230469 581.855469 C 559.484375 584.105469 562.410156 585.230469 565.382812 585.230469 C 568.351562 585.230469 571.28125 584.105469 573.53125 581.855469 L 588.433594 566.953125 L 603.335938 581.855469 C 605.589844 584.105469 608.515625 585.230469 611.488281 585.230469 C 614.457031 585.230469 617.386719 584.105469 619.636719 581.855469 C 624.140625 577.351562 624.140625 570.058594 619.636719 565.554688 L 604.734375 550.652344 L 619.636719 535.75 C 624.140625 531.246094 624.140625 523.953125 619.636719 519.449219 C 615.132812 514.949219 607.839844 514.949219 603.335938 519.449219 L 588.433594 534.355469 L 573.53125 519.449219 C 569.027344 514.949219 561.734375 514.949219 557.230469 519.449219 C 552.730469 523.953125 552.730469 531.246094 557.230469 535.75 L 572.136719 550.652344 L 557.230469 565.554688 C 552.730469 570.058594 552.730469 577.351562 557.230469 581.855469 " fill-opacity="1" fill-rule="nonzero"/><path fill="rgb(100%, 100%, 100%)" d="M 1107.117188 1057.8125 C 1049.9375 1057.8125 1003.382812 1011.300781 1003.382812 954.074219 C 1003.382812 896.847656 1049.9375 850.335938 1107.117188 850.335938 C 1164.300781 850.335938 1210.855469 896.847656 1210.855469 954.074219 C 1210.855469 1011.300781 1164.300781 1057.8125 1107.117188 1057.8125 Z M 1107.117188 631.335938 C 1138.90625 631.335938 1164.75 657.179688 1164.75 688.96875 C 1164.75 720.757812 1138.90625 746.601562 1107.117188 746.601562 C 1075.332031 746.601562 1049.488281 720.757812 1049.488281 688.96875 C 1049.488281 657.179688 1075.332031 631.335938 1107.117188 631.335938 Z M 1107.117188 769.652344 C 1129.179688 769.652344 1149.171875 760.738281 1163.757812 746.332031 L 1181.949219 851.957031 C 1160.96875 836.515625 1135.125 827.285156 1107.117188 827.285156 C 1079.113281 827.285156 1053.3125 836.515625 1032.289062 851.957031 L 1050.476562 746.332031 C 1065.066406 760.738281 1085.054688 769.652344 1107.117188 769.652344 Z M 1182.265625 718.144531 C 1185.777344 709.050781 1187.800781 699.28125 1187.800781 688.96875 C 1187.800781 644.484375 1151.601562 608.285156 1107.117188 608.285156 C 1062.632812 608.285156 1026.433594 644.484375 1026.433594 688.96875 C 1026.433594 699.28125 1028.460938 709.050781 1031.972656 718.144531 L 1003.96875 880.640625 C 989.152344 901.394531 980.328125 926.699219 980.328125 954.074219 C 980.328125 1023.996094 1037.195312 1080.863281 1107.117188 1080.863281 C 1177.042969 1080.863281 1233.90625 1023.996094 1233.90625 954.074219 C 1233.90625 926.699219 1225.082031 901.394531 1210.269531 880.640625 L 1182.265625 718.144531 " fill-opacity="1" fill-rule="nonzero"/></svg>