<?xml version="1.0" encoding="UTF-8"?><svg xmlns="http://www.w3.org/2000/svg" xmlns:xlink="http://www.w3.org/1999/xlink" contentScriptType="text/ecmascript" width="1454.25" zoomAndPan="magnify" contentStyleType="text/css" viewBox="0 0 1454.25 1619.99993" height="1619.99993" preserveAspectRatio="xMidYMid meet" version="1.0"><defs><clipPath id="clip-0"><path d="M 2.375 87 L 684 87 L 684 1535 L 2.375 1535 Z M 2.375 87 " clip-rule="nonzero"/></clipPath><clipPath id="clip-1"><path d="M 723 83.25 L 1450.382812 83.25 L 1450.382812 1536.730469 L 723 1536.730469 Z M 723 83.25 " clip-rule="nonzero"/></clipPath></defs><g clip-path="url(#clip-0)"><path fill="rgb(100%, 100%, 100%)" d="M 683.703125 87.238281 C 661.714844 87.238281 643.8125 105.050781 643.8125 127.132812 L 643.8125 184.371094 L 579.332031 119.800781 C 563.746094 104.308594 538.511719 104.308594 522.925781 119.800781 C 507.339844 135.386719 507.339844 160.621094 522.925781 176.207031 L 643.8125 297.183594 L 643.8125 411.667969 L 521.441406 289.300781 C 505.949219 273.714844 480.621094 273.714844 465.035156 289.300781 C 449.542969 304.886719 449.542969 330.121094 465.035156 345.707031 L 643.8125 524.480469 L 643.8125 741.941406 L 457.242188 634.230469 L 391.003906 387.269531 C 385.34375 366.023438 363.449219 353.40625 342.203125 359.066406 C 320.960938 364.816406 308.34375 386.710938 314 407.957031 L 359.554688 577.824219 L 260.378906 520.492188 L 215.382812 352.664062 C 209.632812 331.417969 187.828125 318.707031 166.492188 324.460938 C 145.246094 330.121094 132.628906 352.015625 138.289062 373.257812 L 162.6875 464.175781 L 111.382812 434.488281 C 92.273438 423.542969 67.875 430.035156 56.925781 449.148438 C 45.886719 468.167969 52.378906 492.566406 71.492188 503.605469 L 121.03125 532.179688 L 32.898438 555.835938 C 11.652344 561.496094 -0.964844 583.390625 4.785156 604.636719 C 9.519531 622.449219 25.660156 634.230469 43.195312 634.230469 C 46.628906 634.230469 50.152344 633.765625 53.585938 632.839844 L 218.722656 588.585938 L 317.898438 645.828125 L 150.8125 690.636719 C 129.566406 696.390625 116.949219 718.191406 122.609375 739.527344 C 127.339844 757.339844 143.484375 769.03125 161.109375 769.03125 C 164.542969 769.03125 167.976562 768.566406 171.410156 767.640625 L 415.589844 702.234375 L 603.917969 810.964844 L 417.351562 918.765625 L 170.480469 852.621094 C 149.144531 846.867188 127.339844 859.484375 121.589844 880.824219 C 115.929688 902.066406 128.546875 923.960938 149.792969 929.621094 L 319.660156 975.171875 L 220.484375 1032.414062 L 52.566406 987.417969 C 31.320312 981.667969 9.425781 994.285156 3.765625 1015.621094 C -1.984375 1036.867188 10.632812 1058.761719 31.96875 1064.421875 L 122.796875 1088.820312 L 71.492188 1118.414062 C 52.378906 1129.457031 45.886719 1153.855469 56.925781 1172.875 C 64.253906 1185.675781 77.707031 1192.820312 91.4375 1192.820312 C 98.210938 1192.820312 105.074219 1191.148438 111.382812 1187.4375 L 160.925781 1158.863281 L 137.359375 1247 C 131.609375 1268.246094 144.226562 1290.140625 165.5625 1295.796875 C 168.996094 1296.726562 172.429688 1297.191406 175.863281 1297.191406 C 193.488281 1297.191406 209.632812 1285.40625 214.363281 1267.59375 L 258.617188 1102.457031 L 357.789062 1045.21875 L 312.980469 1212.300781 C 307.320312 1233.546875 319.9375 1255.441406 341.183594 1261.195312 C 344.710938 1262.121094 348.140625 1262.492188 351.574219 1262.492188 C 369.203125 1262.492188 385.25 1250.804688 390.074219 1232.992188 L 455.480469 988.8125 L 643.8125 880.082031 L 643.8125 1095.59375 L 463.089844 1276.316406 C 447.503906 1291.902344 447.503906 1317.136719 463.089844 1332.628906 C 470.882812 1340.421875 481.085938 1344.320312 491.292969 1344.320312 C 501.496094 1344.320312 511.703125 1340.421875 519.496094 1332.628906 L 643.8125 1208.3125 L 643.8125 1322.886719 L 520.886719 1445.722656 C 505.300781 1461.308594 505.300781 1486.542969 520.886719 1502.128906 C 528.679688 1509.921875 538.882812 1513.816406 549.089844 1513.816406 C 559.292969 1513.816406 569.5 1509.921875 577.292969 1502.128906 L 643.8125 1435.609375 L 643.8125 1494.890625 C 643.8125 1516.878906 661.714844 1534.785156 683.703125 1534.785156 L 683.703125 87.238281 " fill-opacity="1" fill-rule="nonzero"/></g><path fill="rgb(100%, 100%, 100%)" d="M 1048.582031 811.800781 C 1049.601562 632.191406 902.925781 484.957031 723.597656 484.957031 L 723.597656 1135.023438 C 724.152344 1135.023438 724.800781 1135.023438 725.453125 1135.023438 C 903.484375 1134.09375 1047.652344 989.925781 1048.582031 811.800781 " fill-opacity="1" fill-rule="nonzero"/><g clip-path="url(#clip-1)"><path fill="rgb(100%, 100%, 100%)" d="M 1068.25 1020.632812 C 1074.464844 1010.613281 1085.691406 1004.859375 1097.378906 1005.601562 C 1148.128906 1008.941406 1208.152344 1021.28125 1271.886719 1037.144531 C 1215.667969 1003.285156 1164.457031 969.515625 1126.234375 936.023438 C 1117.417969 928.324219 1113.523438 916.261719 1116.304688 904.757812 C 1116.304688 904.664062 1116.398438 904.574219 1116.398438 904.480469 C 1118.8125 894.183594 1126.046875 885.738281 1135.882812 882.027344 C 1219.839844 849.929688 1330.148438 828.035156 1450.289062 810.035156 C 1330.148438 791.945312 1219.839844 770.050781 1135.882812 738.042969 C 1126.046875 734.242188 1118.8125 725.796875 1116.398438 715.59375 C 1116.398438 715.40625 1116.304688 715.316406 1116.304688 715.222656 C 1113.523438 703.8125 1117.417969 691.65625 1126.234375 683.957031 C 1164.457031 650.464844 1215.667969 616.789062 1271.886719 582.835938 C 1208.152344 598.699219 1148.128906 611.039062 1097.378906 614.378906 C 1085.691406 615.210938 1074.464844 609.367188 1068.25 599.347656 C 1068.25 599.253906 1068.15625 599.164062 1068.0625 599.070312 C 1062.589844 590.070312 1061.753906 578.9375 1066.023438 569.382812 C 1102.667969 487.371094 1165.289062 393.855469 1237.46875 296.070312 C 1139.683594 368.34375 1046.261719 430.871094 964.25 467.515625 C 954.601562 471.785156 943.5625 470.949219 934.5625 465.476562 C 934.46875 465.382812 934.378906 465.382812 934.285156 465.289062 C 924.171875 459.167969 918.421875 447.941406 919.164062 436.160156 C 922.503906 385.503906 934.839844 325.386719 950.707031 261.652344 C 916.84375 317.964844 883.074219 369.085938 849.582031 407.308594 C 841.882812 416.214844 829.820312 420.015625 818.410156 417.234375 C 818.226562 417.234375 818.132812 417.234375 818.039062 417.140625 C 807.742188 414.730469 799.300781 407.492188 795.589844 397.660156 C 763.488281 313.792969 741.59375 203.390625 723.597656 83.25 L 723.597656 436.160156 C 747.53125 436.160156 772.023438 438.386719 796.886719 443.117188 C 945.417969 471.320312 1062.3125 588.121094 1090.515625 736.746094 C 1135.789062 975.359375 954.046875 1183.914062 723.597656 1183.914062 L 723.597656 1536.730469 C 741.59375 1416.589844 763.488281 1306.28125 795.589844 1222.320312 C 799.300781 1212.488281 807.742188 1205.25 818.039062 1202.839844 C 818.132812 1202.746094 818.226562 1202.746094 818.410156 1202.746094 C 829.820312 1199.964844 841.882812 1203.765625 849.582031 1212.671875 C 883.074219 1250.894531 916.84375 1302.015625 950.707031 1358.328125 C 934.839844 1294.59375 922.503906 1234.476562 919.164062 1183.820312 C 918.421875 1172.132812 924.171875 1160.8125 934.285156 1154.691406 C 934.378906 1154.597656 934.46875 1154.597656 934.5625 1154.503906 C 943.5625 1149.03125 954.601562 1148.195312 964.25 1152.464844 C 1046.261719 1189.109375 1139.683594 1251.636719 1237.46875 1323.910156 C 1165.289062 1226.125 1102.667969 1132.703125 1066.023438 1050.597656 C 1061.753906 1041.042969 1062.589844 1029.910156 1068.0625 1021.003906 C 1068.15625 1020.910156 1068.25 1020.726562 1068.25 1020.632812 " fill-opacity="1" fill-rule="nonzero"/></g></svg>