<?xml version="1.0" encoding="UTF-8"?><svg xmlns="http://www.w3.org/2000/svg" xmlns:xlink="http://www.w3.org/1999/xlink" contentScriptType="text/ecmascript" width="1454.25" zoomAndPan="magnify" contentStyleType="text/css" viewBox="0 0 1454.25 1619.99993" height="1619.99993" preserveAspectRatio="xMidYMid meet" version="1.0"><defs><clipPath id="clip-0"><path d="M 8 53 L 1444 53 L 1444 1570.71875 L 8 1570.71875 Z M 8 53 " clip-rule="nonzero"/></clipPath></defs><g clip-path="url(#clip-0)"><path fill="rgb(100%, 100%, 100%)" d="M 1411.5625 1071.296875 L 1411.5625 1071.265625 C 1378.757812 1018.804688 1325.695312 981.824219 1273.097656 974.8125 L 1255.277344 972.472656 C 1245.597656 971.1875 1236.273438 969.96875 1227.25 968.785156 L 1222.96875 968.226562 C 1173.695312 961.671875 1134.601562 956.46875 1089.375 949.652344 C 1080.25 942.40625 1070.140625 934.273438 1057.953125 924.394531 C 1059.832031 917.507812 1060.917969 910.464844 1061.285156 903.347656 C 1062.566406 877.074219 1053.539062 851.84375 1035.855469 832.382812 C 1006.605469 800.144531 960.167969 791.089844 921.136719 809.363281 L 920.839844 809.101562 C 919.230469 807.71875 917.617188 806.335938 916 804.917969 C 930.554688 788.257812 939.054688 767.28125 940.140625 744.953125 C 941.425781 718.675781 932.367188 693.484375 914.679688 673.988281 C 896.996094 654.492188 872.785156 643.097656 846.539062 641.816406 C 820.257812 640.5625 795.058594 649.585938 775.59375 667.238281 L 769.929688 672.375 C 769.5 671.980469 769.105469 671.585938 768.679688 671.1875 L 786.859375 654.691406 C 806.292969 637.074219 817.71875 612.871094 819.003906 586.558594 C 820.320312 560.28125 811.296875 535.085938 793.578125 515.625 C 775.925781 496.164062 751.714844 484.738281 725.398438 483.417969 C 699.148438 482.136719 673.921875 491.160156 654.453125 508.875 L 629.128906 531.859375 C 628.730469 531.433594 628.335938 531.003906 627.941406 530.609375 L 662.65625 499.09375 L 672.40625 490.136719 L 671.8125 489.609375 C 703.332031 452.234375 702.839844 396.910156 669.375 360.027344 C 651.65625 340.566406 627.449219 329.140625 601.195312 327.855469 C 579.097656 326.800781 557.554688 333.09375 539.671875 345.703125 L 539.242188 345.277344 L 530.648438 352.917969 C 530.449219 353.046875 530.285156 353.210938 530.121094 353.378906 L 498.140625 382.390625 C 485.984375 367.175781 474.457031 352.324219 463.820312 338.097656 C 454.335938 308.261719 455.222656 281.753906 456.113281 256.066406 C 457.527344 212.929688 458.976562 168.339844 410.265625 119.769531 C 346.074219 55.652344 273.449219 48.96875 223.847656 54.664062 C 170.6875 60.726562 132.777344 81.667969 131.164062 82.589844 L 106.921875 96.191406 L 260.703125 197.253906 C 271.109375 268.84375 211.132812 312.675781 186.464844 327.429688 L 23.691406 237.433594 L 17.304688 256.695312 C 0.539062 306.816406 6.863281 359.375 35.121094 404.6875 C 62.65625 448.78125 107.316406 479.832031 151.617188 485.761719 C 165.679688 487.636719 178.789062 489.382812 191.207031 490.996094 L 195.160156 491.523438 C 245.453125 498.175781 285.207031 503.445312 337.113281 511.84375 C 339.550781 512.203125 341.957031 512.433594 344.359375 512.535156 L 345.316406 513.621094 C 346.535156 514.96875 347.753906 516.355469 348.972656 517.703125 L 167.625 682.289062 C 144.238281 704.519531 130.042969 729.609375 125.398438 756.84375 C 118.945312 794.945312 133.667969 824.550781 137.488281 831.367188 L 302.53125 1248.558594 L 220.71875 1484.800781 L 229.3125 1492.277344 C 297.820312 1552.375 691.902344 1569.234375 708.570312 1569.925781 L 721.777344 1570.550781 L 725.597656 1557.738281 C 729.320312 1545.425781 762.421875 1435.242188 786.167969 1358.378906 C 801.21875 1309.578125 869.132812 1230.675781 907.636719 1188.589844 C 910.039062 1209.695312 909.382812 1229.75 908.757812 1249.34375 C 907.074219 1300.816406 905.367188 1354 963.132812 1411.691406 C 1015.339844 1463.820312 1080.882812 1491.382812 1152.683594 1491.382812 C 1163.617188 1491.382812 1174.785156 1490.726562 1185.886719 1489.441406 C 1247.605469 1482.425781 1291.804688 1458.882812 1296.683594 1456.179688 L 1320.988281 1442.578125 L 1138.394531 1322.546875 C 1123.933594 1229.945312 1206.109375 1173.738281 1231.472656 1158.785156 L 1426.453125 1266.632812 L 1432.910156 1247.304688 C 1452.800781 1187.707031 1445.222656 1125.203125 1411.5625 1071.296875 Z M 919.425781 850.691406 C 931.351562 839.894531 946.765625 833.964844 962.835938 833.964844 C 981.050781 833.964844 998.539062 841.671875 1010.796875 855.171875 C 1022.390625 867.914062 1028.316406 884.445312 1027.492188 901.667969 C 1026.601562 918.957031 1019.09375 934.832031 1006.3125 946.421875 L 886.164062 1055.421875 L 885.671875 1055.851562 C 880.46875 1060.492188 874.734375 1064.152344 868.578125 1066.753906 C 843.183594 1077.816406 813.640625 1071.460938 794.964844 1050.914062 C 775.863281 1029.867188 772.667969 999.246094 787.125 974.679688 C 790.320312 969.179688 794.40625 964.175781 799.3125 959.730469 Z M 798.324219 692.332031 L 799.40625 691.347656 C 811.988281 680.414062 828.160156 674.816406 844.894531 675.605469 C 862.15625 676.460938 878.0625 683.96875 889.65625 696.78125 C 901.253906 709.554688 907.179688 726.085938 906.320312 743.308594 C 905.5 760.566406 897.992188 776.472656 885.175781 788.0625 L 747.109375 913.328125 C 743.8125 916.289062 740.324219 918.863281 736.632812 921.003906 C 710.417969 936.480469 676.527344 931.277344 656.007812 908.6875 C 635.125 885.667969 633.578125 851.027344 652.417969 826.164062 C 654.625 823.199219 657.324219 820.269531 660.453125 817.4375 Z M 677.148438 533.9375 C 689.992188 522.347656 706.527344 516.417969 723.753906 517.242188 C 741.011719 518.066406 756.890625 525.574219 768.480469 538.417969 C 780.105469 551.160156 786.035156 567.660156 785.210938 584.914062 C 784.355469 602.203125 776.8125 618.074219 764.035156 629.667969 L 699.019531 688.679688 C 693.386719 645.277344 664.238281 615.410156 660.515625 611.753906 L 658.507812 610.105469 C 658.507812 610.105469 643.386719 599.371094 621.847656 584.15625 Z M 552.683594 378.605469 L 553.078125 378.242188 C 565.855469 366.683594 582.359375 360.789062 599.484375 361.679688 C 616.710938 362.503906 632.617188 370.011719 644.277344 382.820312 C 655.839844 395.566406 661.765625 412.097656 660.910156 429.382812 C 660.085938 446.640625 652.609375 462.511719 639.863281 474.070312 L 563.617188 543.226562 C 536.410156 524.15625 515.035156 509.304688 500.050781 499.097656 C 484.832031 488.660156 467.707031 479.800781 449 472.65625 Z M 603.273438 541.839844 L 599.484375 545.496094 L 599.285156 545.496094 Z M 753.824219 1348.40625 C 733.503906 1414.136719 705.804688 1506.007812 696.910156 1535.550781 C 550.046875 1528.46875 321.964844 1506.503906 260.667969 1472.917969 L 338.628906 1247.808594 L 168.480469 817.796875 L 167.589844 815.890625 L 167.097656 814.996094 C 165.878906 812.824219 153.957031 790.726562 158.765625 762.539062 C 162.125 742.746094 172.894531 724.042969 190.777344 706.917969 L 191.109375 706.621094 C 191.4375 706.359375 191.734375 706.0625 192.03125 705.734375 L 420.378906 498.601562 C 436.84375 503.605469 459.472656 512.367188 480.914062 527.019531 C 496.492188 537.625 519.417969 553.59375 555.25 578.71875 C 565.496094 585.898438 575.574219 592.980469 585.058594 599.664062 C 609.464844 616.855469 629.523438 631.046875 636.375 635.886719 L 637.65625 636.808594 C 643.386719 642.835938 675.171875 678.796875 663.546875 722.792969 L 662.953125 724.898438 C 661.933594 728.554688 660.449219 732.539062 658.539062 736.785156 C 648.757812 758.289062 634.101562 775.316406 616.152344 786.019531 C 592.238281 800.375 568.0625 800.242188 555.679688 794.050781 C 532.0625 782.261719 464.445312 740.574219 436.515625 723.21875 L 408.355469 705.632812 L 335.664062 778.277344 L 477.949219 1043.367188 L 507.722656 1027.332031 L 450.019531 919.710938 C 547.839844 928.703125 616.742188 1001.148438 657.945312 1061.910156 C 686.4375 1103.929688 700.828125 1139.460938 700.960938 1139.785156 L 703.992188 1147.457031 L 735.480469 1134.882812 L 732.414062 1127.210938 C 730.804688 1123.226562 715.816406 1086.902344 685.941406 1042.875 C 637.195312 971.019531 553.671875 885.828125 431.34375 884.941406 L 377.394531 784.4375 L 413.230469 748.609375 L 418.566406 751.933594 C 446.988281 769.585938 515.792969 812 540.496094 824.347656 C 560.882812 834.589844 588.21875 834.429688 614.273438 824.480469 C 598.132812 859.75 604.261719 902.066406 630.972656 931.4375 C 649.546875 951.949219 676.191406 963.710938 704.089844 963.710938 C 716.769531 963.710938 729.449219 961.207031 741.175781 956.433594 C 744.898438 960.648438 748.554688 964.765625 752.214844 968.878906 C 736.996094 1004.210938 743.679688 1044.785156 769.898438 1073.699219 C 788.570312 1094.210938 815.183594 1106.003906 842.851562 1106.003906 C 852.105469 1106.003906 861.261719 1104.6875 870.1875 1102.117188 C 874.863281 1107.453125 879.445312 1112.65625 883.855469 1117.691406 L 889.816406 1124.445312 C 893.375 1132.210938 896.371094 1140.050781 898.945312 1148.1875 C 851.1875 1198.769531 772.269531 1288.636719 753.824219 1348.40625 Z M 753.824219 1348.40625 " fill-opacity="1" fill-rule="nonzero"/></g></svg>