<?xml version="1.0" encoding="UTF-8"?><svg xmlns="http://www.w3.org/2000/svg" xmlns:xlink="http://www.w3.org/1999/xlink" contentScriptType="text/ecmascript" width="1454.25" zoomAndPan="magnify" contentStyleType="text/css" viewBox="0 0 1454.25 1619.99993" height="1619.99993" preserveAspectRatio="xMidYMid meet" version="1.0"><defs><clipPath id="clip-0"><path d="M 269 105.269531 L 697 105.269531 L 697 752.9375 L 269 752.9375 Z M 269 105.269531 " clip-rule="nonzero"/></clipPath><clipPath id="clip-1"><path d="M 772 429.105469 L 1200 429.105469 L 1200 1076.769531 L 772 1076.769531 Z M 772 429.105469 " clip-rule="nonzero"/></clipPath><clipPath id="clip-2"><path d="M 269 810 L 697 810 L 697 1457.664062 L 269 1457.664062 Z M 269 810 " clip-rule="nonzero"/></clipPath></defs><path fill="rgb(100%, 100%, 100%)" d="M 617.6875 366.015625 C 493.773438 242.082031 482.605469 109.292969 482.605469 109.292969 C 482.605469 109.292969 471.425781 242.082031 347.511719 366.015625 C 223.605469 489.964844 244.207031 749.023438 482.605469 749.023438 C 720.984375 749.023438 741.59375 489.964844 617.6875 366.015625 " fill-opacity="1" fill-rule="nonzero"/><g clip-path="url(#clip-0)"><path fill="rgb(13.729858%, 12.159729%, 12.548828%)" d="M 617.6875 366.015625 L 620.300781 363.402344 C 558.777344 301.871094 525.273438 238.171875 507.136719 189.882812 C 498.066406 165.738281 492.851562 145.449219 489.898438 131.230469 C 488.425781 124.121094 487.519531 118.527344 486.984375 114.722656 C 486.710938 112.824219 486.535156 111.375 486.429688 110.40625 C 486.371094 109.914062 486.335938 109.554688 486.3125 109.316406 L 486.292969 109.054688 L 486.285156 108.984375 C 486.117188 107.070312 484.515625 105.597656 482.605469 105.597656 C 480.683594 105.597656 479.082031 107.070312 478.917969 108.984375 L 478.910156 109.054688 C 478.75 110.816406 475.53125 144.15625 457.203125 192.15625 C 438.875 240.164062 405.464844 302.832031 344.902344 363.402344 C 295.804688 412.542969 269.152344 482.320312 269.132812 549.367188 C 269.132812 601.769531 285.46875 652.628906 320.480469 690.449219 C 337.980469 709.347656 360.140625 724.945312 387.105469 735.785156 C 414.082031 746.628906 445.84375 752.71875 482.605469 752.71875 C 519.355469 752.71875 551.121094 746.628906 578.085938 735.785156 C 618.546875 719.53125 648.152344 692.542969 667.507812 659.816406 C 686.882812 627.089844 696.0625 588.675781 696.0625 549.367188 C 696.046875 482.320312 669.390625 412.542969 620.300781 363.402344 L 617.6875 366.015625 L 615.066406 368.628906 C 662.652344 416.195312 688.6875 484.261719 688.671875 549.367188 C 688.671875 600.269531 672.816406 649.234375 639.292969 685.425781 C 622.523438 703.527344 601.320312 718.476562 575.328125 728.929688 C 549.335938 739.378906 518.539062 745.328125 482.605469 745.328125 C 446.660156 745.328125 415.855469 739.378906 389.863281 728.929688 C 350.882812 713.242188 322.652344 687.46875 304.042969 656.054688 C 285.449219 624.644531 276.523438 587.535156 276.523438 549.367188 C 276.507812 484.261719 302.542969 416.195312 350.125 368.628906 C 412.507812 306.238281 446.554688 241.570312 464.984375 192.480469 C 483.414062 143.386719 486.253906 109.863281 486.285156 109.605469 L 482.605469 109.292969 L 478.917969 109.605469 C 478.9375 109.863281 481.789062 143.386719 500.21875 192.480469 C 518.648438 241.570312 552.6875 306.238281 615.066406 368.628906 L 617.6875 366.015625 " fill-opacity="1" fill-rule="nonzero"/></g><path fill="rgb(13.729858%, 12.159729%, 12.548828%)" d="M 520.4375 655.125 C 333.890625 655.125 317.761719 446.792969 414.730469 347.121094 C 447.355469 313.585938 469.96875 279.261719 485.648438 248.441406 C 474.125 214.195312 472.242188 191.441406 472.242188 191.441406 C 472.242188 191.441406 463.511719 298.230469 366.535156 397.898438 C 269.574219 497.550781 285.6875 705.882812 472.242188 705.882812 C 544.417969 705.882812 590.980469 674.648438 615.457031 630.640625 C 590.84375 645.949219 559.410156 655.125 520.4375 655.125 " fill-opacity="1" fill-rule="nonzero"/><path fill="rgb(100%, 100%, 100%)" d="M 1120.828125 689.847656 C 996.914062 565.917969 985.746094 433.128906 985.746094 433.128906 C 985.746094 433.128906 974.566406 565.917969 850.652344 689.847656 C 726.746094 813.796875 747.347656 1072.855469 985.746094 1072.855469 C 1224.125 1072.855469 1244.734375 813.796875 1120.828125 689.847656 " fill-opacity="1" fill-rule="nonzero"/><g clip-path="url(#clip-1)"><path fill="rgb(13.729858%, 12.159729%, 12.548828%)" d="M 1120.828125 689.847656 L 1123.441406 687.238281 C 1061.917969 625.703125 1028.414062 562.003906 1010.277344 513.714844 C 1001.207031 489.570312 995.992188 469.28125 993.039062 455.0625 C 991.566406 447.953125 990.660156 442.359375 990.125 438.554688 C 989.851562 436.65625 989.675781 435.207031 989.570312 434.238281 C 989.511719 433.75 989.476562 433.386719 989.453125 433.148438 L 989.433594 432.890625 L 989.425781 432.816406 C 989.257812 430.90625 987.65625 429.433594 985.746094 429.433594 C 983.824219 429.433594 982.222656 430.90625 982.058594 432.816406 L 982.050781 432.890625 C 981.890625 434.652344 978.671875 467.992188 960.34375 515.988281 C 942.015625 563.996094 908.605469 626.664062 848.042969 687.238281 C 798.945312 736.375 772.292969 806.152344 772.273438 873.199219 C 772.273438 925.601562 788.609375 976.460938 823.621094 1014.28125 C 841.121094 1033.179688 863.28125 1048.777344 890.246094 1059.617188 C 917.222656 1070.460938 948.984375 1076.550781 985.746094 1076.550781 C 1022.496094 1076.550781 1054.261719 1070.460938 1081.226562 1059.617188 C 1121.6875 1043.363281 1151.292969 1016.375 1170.648438 983.648438 C 1190.023438 950.921875 1199.203125 912.507812 1199.203125 873.199219 C 1199.1875 806.152344 1172.53125 736.375 1123.441406 687.238281 L 1120.828125 689.847656 L 1118.207031 692.460938 C 1165.792969 740.027344 1191.828125 808.09375 1191.8125 873.199219 C 1191.8125 924.101562 1175.957031 973.066406 1142.433594 1009.257812 C 1125.664062 1027.363281 1104.460938 1042.308594 1078.46875 1052.761719 C 1052.476562 1063.214844 1021.679688 1069.160156 985.746094 1069.160156 C 949.800781 1069.160156 918.996094 1063.214844 893.003906 1052.761719 C 854.023438 1037.078125 825.792969 1011.300781 807.183594 979.890625 C 788.589844 948.476562 779.664062 911.367188 779.664062 873.199219 C 779.648438 808.09375 805.683594 740.027344 853.265625 692.460938 C 915.648438 630.070312 949.691406 565.402344 968.121094 516.316406 C 986.550781 467.21875 989.394531 433.699219 989.425781 433.4375 L 985.746094 433.128906 L 982.058594 433.4375 C 982.078125 433.699219 984.929688 467.21875 1003.359375 516.316406 C 1021.789062 565.402344 1055.828125 630.070312 1118.207031 692.460938 L 1120.828125 689.847656 " fill-opacity="1" fill-rule="nonzero"/></g><path fill="rgb(13.729858%, 12.159729%, 12.548828%)" d="M 1023.578125 978.957031 C 837.03125 978.957031 820.902344 770.625 917.871094 670.953125 C 950.496094 637.417969 973.109375 603.097656 988.789062 572.277344 C 977.265625 538.027344 975.382812 515.273438 975.382812 515.273438 C 975.382812 515.273438 966.652344 622.066406 869.675781 721.730469 C 772.714844 821.382812 788.828125 1029.714844 975.382812 1029.714844 C 1047.558594 1029.714844 1094.121094 998.484375 1118.597656 954.472656 C 1093.984375 969.785156 1062.550781 978.957031 1023.578125 978.957031 " fill-opacity="1" fill-rule="nonzero"/><path fill="rgb(100%, 100%, 100%)" d="M 617.6875 1070.746094 C 493.773438 946.8125 482.605469 814.023438 482.605469 814.023438 C 482.605469 814.023438 471.425781 946.8125 347.511719 1070.746094 C 223.605469 1194.691406 244.207031 1453.753906 482.605469 1453.753906 C 720.984375 1453.753906 741.59375 1194.691406 617.6875 1070.746094 " fill-opacity="1" fill-rule="nonzero"/><g clip-path="url(#clip-2)"><path fill="rgb(13.729858%, 12.159729%, 12.548828%)" d="M 617.6875 1070.746094 L 620.300781 1068.132812 C 558.777344 1006.597656 525.273438 942.898438 507.136719 894.613281 C 498.066406 870.46875 492.851562 850.179688 489.898438 835.957031 C 488.425781 828.847656 487.519531 823.253906 486.984375 819.453125 C 486.710938 817.554688 486.535156 816.101562 486.429688 815.136719 C 486.371094 814.644531 486.335938 814.28125 486.3125 814.046875 L 486.292969 813.785156 L 486.285156 813.714844 C 486.117188 811.800781 484.515625 810.328125 482.605469 810.328125 C 480.683594 810.328125 479.082031 811.800781 478.917969 813.714844 L 478.910156 813.785156 C 478.75 815.546875 475.53125 848.886719 457.203125 896.886719 C 438.875 944.890625 405.464844 1007.558594 344.902344 1068.132812 C 295.804688 1117.273438 269.152344 1187.046875 269.132812 1254.097656 C 269.132812 1306.5 285.46875 1357.355469 320.480469 1395.179688 C 337.980469 1414.074219 360.140625 1429.671875 387.105469 1440.515625 C 414.082031 1451.355469 445.84375 1457.449219 482.605469 1457.449219 C 519.355469 1457.449219 551.121094 1451.355469 578.085938 1440.515625 C 618.546875 1424.257812 648.152344 1397.273438 667.507812 1364.546875 C 686.882812 1331.820312 696.0625 1293.40625 696.0625 1254.097656 C 696.046875 1187.046875 669.390625 1117.273438 620.300781 1068.132812 L 617.6875 1070.746094 L 615.066406 1073.359375 C 662.652344 1120.925781 688.6875 1188.988281 688.671875 1254.097656 C 688.671875 1304.996094 672.816406 1353.964844 639.292969 1390.15625 C 622.523438 1408.257812 601.320312 1423.207031 575.328125 1433.65625 C 549.335938 1444.109375 518.539062 1450.054688 482.605469 1450.054688 C 446.660156 1450.054688 415.855469 1444.109375 389.863281 1433.65625 C 350.882812 1417.972656 322.652344 1392.199219 304.042969 1360.785156 C 285.449219 1329.371094 276.523438 1292.265625 276.523438 1254.097656 C 276.507812 1188.988281 302.542969 1120.925781 350.125 1073.359375 C 412.507812 1010.964844 446.554688 946.300781 464.984375 897.210938 C 483.414062 848.113281 486.253906 814.59375 486.285156 814.332031 L 482.605469 814.023438 L 478.917969 814.332031 C 478.9375 814.59375 481.789062 848.113281 500.21875 897.210938 C 518.648438 946.300781 552.6875 1010.964844 615.066406 1073.359375 L 617.6875 1070.746094 " fill-opacity="1" fill-rule="nonzero"/></g><path fill="rgb(13.729858%, 12.159729%, 12.548828%)" d="M 520.4375 1359.855469 C 333.890625 1359.855469 317.761719 1151.519531 414.730469 1051.847656 C 447.355469 1018.3125 469.96875 983.992188 485.648438 953.171875 C 474.125 918.921875 472.242188 896.171875 472.242188 896.171875 C 472.242188 896.171875 463.511719 1002.960938 366.535156 1102.625 C 269.574219 1202.277344 285.6875 1410.609375 472.242188 1410.609375 C 544.417969 1410.609375 590.980469 1379.378906 615.457031 1335.371094 C 590.84375 1350.679688 559.410156 1359.855469 520.4375 1359.855469 " fill-opacity="1" fill-rule="nonzero"/></svg>