<?xml version="1.0" encoding="UTF-8"?><svg xmlns="http://www.w3.org/2000/svg" xmlns:xlink="http://www.w3.org/1999/xlink" contentScriptType="text/ecmascript" width="1454.25" zoomAndPan="magnify" contentStyleType="text/css" viewBox="0 0 1454.25 1619.99993" height="1619.99993" preserveAspectRatio="xMidYMid meet" version="1.0"><defs><clipPath id="clip-0"><path d="M 1 1244 L 1453 1244 L 1453 1352.945312 L 1 1352.945312 Z M 1 1244 " clip-rule="nonzero"/></clipPath><clipPath id="clip-1"><path d="M 178 266.753906 L 330 266.753906 L 330 411 L 178 411 Z M 178 266.753906 " clip-rule="nonzero"/></clipPath><clipPath id="clip-2"><path d="M 1124 266.753906 L 1276 266.753906 L 1276 411 L 1124 411 Z M 1124 266.753906 " clip-rule="nonzero"/></clipPath></defs><path fill="rgb(100%, 100%, 100%)" d="M 1395.574219 1273.496094 C 1395.574219 1287.277344 1384.382812 1298.4375 1370.628906 1298.4375 L 82.882812 1298.4375 C 69.082031 1298.4375 57.921875 1287.277344 57.921875 1273.496094 L 57.921875 373.195312 C 57.921875 359.429688 69.082031 348.257812 82.882812 348.257812 L 1370.628906 348.257812 C 1384.382812 348.257812 1395.574219 359.429688 1395.574219 373.195312 L 1395.574219 1273.496094 " fill-opacity="1" fill-rule="nonzero"/><path fill="rgb(22.349548%, 20.779419%, 21.179199%)" d="M 1395.574219 1273.496094 L 1389.539062 1273.496094 C 1389.539062 1278.730469 1387.433594 1283.429688 1383.992188 1286.871094 C 1380.546875 1290.296875 1375.863281 1292.402344 1370.628906 1292.402344 L 82.882812 1292.402344 C 77.632812 1292.402344 72.933594 1290.296875 69.492188 1286.871094 C 66.0625 1283.429688 63.957031 1278.730469 63.957031 1273.496094 L 63.957031 373.195312 C 63.957031 367.960938 66.0625 363.277344 69.492188 359.835938 C 72.933594 356.394531 77.632812 354.289062 82.882812 354.289062 L 1370.628906 354.289062 C 1375.863281 354.289062 1380.546875 356.394531 1383.992188 359.835938 C 1387.433594 363.277344 1389.539062 367.960938 1389.539062 373.195312 L 1389.539062 1273.496094 L 1401.609375 1273.496094 L 1401.609375 373.195312 C 1401.609375 356.097656 1387.730469 342.238281 1370.628906 342.222656 L 82.882812 342.222656 C 65.75 342.238281 51.886719 356.097656 51.886719 373.195312 L 51.886719 1273.496094 C 51.886719 1290.609375 65.765625 1304.472656 82.882812 1304.472656 L 1370.628906 1304.472656 C 1387.730469 1304.472656 1401.609375 1290.609375 1401.609375 1273.496094 L 1395.574219 1273.496094 " fill-opacity="1" fill-rule="nonzero"/><path fill="rgb(100%, 100%, 100%)" d="M 57.921875 502.226562 L 57.921875 1273.496094 C 57.921875 1287.277344 69.082031 1298.4375 82.882812 1298.4375 L 1370.628906 1298.4375 C 1384.382812 1298.4375 1395.574219 1287.277344 1395.574219 1273.496094 L 1395.574219 502.226562 L 57.921875 502.226562 " fill-opacity="1" fill-rule="nonzero"/><path fill="rgb(22.349548%, 20.779419%, 21.179199%)" d="M 57.921875 502.226562 L 51.886719 502.226562 L 51.886719 1273.496094 C 51.886719 1290.609375 65.765625 1304.472656 82.882812 1304.472656 L 1370.628906 1304.472656 C 1387.730469 1304.472656 1401.609375 1290.609375 1401.609375 1273.496094 L 1401.609375 502.226562 C 1401.609375 500.625 1400.964844 499.085938 1399.835938 497.953125 C 1398.71875 496.820312 1397.164062 496.191406 1395.574219 496.191406 L 57.921875 496.191406 C 56.320312 496.191406 54.761719 496.820312 53.648438 497.953125 C 52.515625 499.085938 51.886719 500.625 51.886719 502.226562 L 57.921875 502.226562 L 57.921875 508.261719 L 1389.539062 508.261719 L 1389.539062 1273.496094 C 1389.539062 1278.730469 1387.433594 1283.429688 1383.992188 1286.871094 C 1380.546875 1290.296875 1375.863281 1292.402344 1370.628906 1292.402344 L 82.882812 1292.402344 C 77.632812 1292.402344 72.933594 1290.296875 69.492188 1286.871094 C 66.0625 1283.429688 63.957031 1278.730469 63.957031 1273.496094 L 63.957031 502.226562 L 57.921875 502.226562 L 57.921875 508.261719 L 57.921875 502.226562 " fill-opacity="1" fill-rule="nonzero"/><path fill="rgb(100%, 100%, 100%)" d="M 1003.3125 900.324219 C 1003.3125 1053.039062 879.496094 1176.820312 726.757812 1176.820312 C 574 1176.820312 450.167969 1053.039062 450.167969 900.324219 C 450.167969 747.625 574 623.828125 726.757812 623.828125 C 879.496094 623.828125 1003.3125 747.625 1003.3125 900.324219 " fill-opacity="1" fill-rule="nonzero"/><path fill="rgb(22.349548%, 20.779419%, 21.179199%)" d="M 1003.3125 900.324219 L 997.277344 900.324219 C 997.277344 975.03125 967.003906 1042.621094 918.039062 1091.585938 C 869.074219 1140.535156 801.484375 1170.785156 726.757812 1170.785156 C 652.011719 1170.785156 584.421875 1140.535156 535.441406 1091.585938 C 486.480469 1042.621094 456.21875 975.03125 456.203125 900.324219 C 456.21875 825.617188 486.480469 758.042969 535.441406 709.078125 C 584.421875 660.128906 652.011719 629.859375 726.757812 629.859375 C 801.484375 629.859375 869.074219 660.128906 918.039062 709.078125 C 967.003906 758.042969 997.277344 825.617188 997.277344 900.324219 L 1009.347656 900.324219 C 1009.347656 744.292969 882.828125 617.792969 726.757812 617.792969 C 570.652344 617.792969 444.148438 744.292969 444.132812 900.324219 C 444.148438 1056.386719 570.652344 1182.855469 726.757812 1182.855469 C 882.828125 1182.855469 1009.347656 1056.386719 1009.347656 900.324219 L 1003.3125 900.324219 " fill-opacity="1" fill-rule="nonzero"/><path fill="rgb(22.349548%, 20.779419%, 21.179199%)" d="M 720.769531 876.753906 L 833.25 675.023438 L 620.214844 922.496094 L 732.714844 922.496094 L 620.214844 1124.210938 L 833.25 876.753906 L 720.769531 876.753906 " fill-opacity="1" fill-rule="nonzero"/><path fill="rgb(100%, 100%, 100%)" d="M 1446.191406 1321.882812 C 1446.191406 1335.664062 1434.996094 1346.820312 1421.210938 1346.820312 L 32.285156 1346.820312 C 18.5 1346.820312 7.324219 1335.664062 7.324219 1321.882812 L 7.324219 1274.992188 C 7.324219 1261.222656 18.5 1250.050781 32.285156 1250.050781 L 1421.210938 1250.050781 C 1434.996094 1250.050781 1446.191406 1261.222656 1446.191406 1274.992188 L 1446.191406 1321.882812 " fill-opacity="1" fill-rule="nonzero"/><g clip-path="url(#clip-0)"><path fill="rgb(22.349548%, 20.779419%, 21.179199%)" d="M 1446.191406 1321.882812 L 1440.152344 1321.882812 C 1440.136719 1327.117188 1438.03125 1331.8125 1434.605469 1335.238281 C 1431.164062 1338.679688 1426.460938 1340.769531 1421.210938 1340.785156 L 32.285156 1340.785156 C 27.035156 1340.769531 22.335938 1338.679688 18.890625 1335.238281 C 15.464844 1331.8125 13.359375 1327.117188 13.359375 1321.882812 L 13.359375 1274.992188 C 13.359375 1269.757812 15.464844 1265.058594 18.90625 1261.617188 C 22.335938 1258.191406 27.035156 1256.085938 32.285156 1256.085938 L 1421.210938 1256.070312 C 1426.460938 1256.085938 1431.148438 1258.191406 1434.605469 1261.617188 C 1438.03125 1265.074219 1440.136719 1269.757812 1440.152344 1274.992188 L 1440.152344 1321.882812 L 1452.226562 1321.882812 L 1452.226562 1274.992188 C 1452.210938 1257.878906 1438.332031 1244.015625 1421.210938 1244.015625 L 32.285156 1244.015625 C 15.152344 1244.015625 1.289062 1257.894531 1.289062 1274.992188 L 1.289062 1321.882812 C 1.289062 1338.996094 15.167969 1352.855469 32.285156 1352.855469 L 1421.210938 1352.855469 C 1438.332031 1352.839844 1452.210938 1338.996094 1452.226562 1321.882812 L 1446.191406 1321.882812 " fill-opacity="1" fill-rule="nonzero"/></g><path fill="rgb(100%, 100%, 100%)" d="M 1002.730469 405.441406 C 1003.453125 403.101562 1003.957031 400.679688 1003.957031 398.101562 L 1003.957031 316.011719 C 1003.957031 302.242188 992.796875 291.070312 979.011719 291.070312 L 474.484375 291.070312 C 460.699219 291.070312 449.539062 302.242188 449.539062 316.011719 L 449.539062 398.101562 C 449.539062 400.679688 450.042969 403.101562 450.765625 405.441406 L 57.921875 405.441406 L 57.921875 502.226562 L 1395.574219 502.226562 L 1395.574219 405.441406 L 1002.730469 405.441406 " fill-opacity="1" fill-rule="nonzero"/><path fill="rgb(22.349548%, 20.779419%, 21.179199%)" d="M 1002.730469 405.441406 L 1008.5 407.234375 C 1009.347656 404.515625 1009.992188 401.464844 1009.992188 398.101562 L 1009.992188 316.011719 C 1009.992188 298.898438 996.128906 285.035156 979.011719 285.035156 L 474.484375 285.035156 C 457.367188 285.035156 443.503906 298.898438 443.503906 316.011719 L 443.503906 398.101562 C 443.503906 401.480469 444.164062 404.53125 444.996094 407.21875 L 450.765625 405.441406 L 450.765625 399.40625 L 57.921875 399.40625 C 56.320312 399.40625 54.761719 400.050781 53.648438 401.183594 C 52.515625 402.296875 51.886719 403.855469 51.886719 405.441406 L 51.886719 502.226562 C 51.886719 503.8125 52.515625 505.355469 53.648438 506.484375 C 54.761719 507.617188 56.320312 508.261719 57.921875 508.261719 L 1395.574219 508.261719 C 1397.164062 508.261719 1398.71875 507.617188 1399.835938 506.484375 C 1400.964844 505.355469 1401.609375 503.8125 1401.609375 502.226562 L 1401.609375 405.441406 C 1401.609375 403.855469 1400.964844 402.296875 1399.835938 401.183594 C 1398.71875 400.050781 1397.164062 399.40625 1395.574219 399.40625 L 1002.730469 399.40625 L 1002.730469 405.441406 L 1008.5 407.234375 L 1002.730469 405.441406 L 1002.730469 411.476562 L 1389.539062 411.476562 L 1389.539062 496.191406 L 63.957031 496.191406 L 63.957031 411.476562 L 450.765625 411.476562 C 452.683594 411.476562 454.492188 410.5625 455.625 409.023438 C 456.753906 407.484375 457.101562 405.503906 456.535156 403.664062 C 455.921875 401.667969 455.574219 399.878906 455.574219 398.101562 L 455.574219 316.011719 C 455.574219 310.777344 457.683594 306.078125 461.109375 302.636719 C 464.550781 299.210938 469.234375 297.105469 474.484375 297.105469 L 979.011719 297.105469 C 984.246094 297.105469 988.945312 299.210938 992.386719 302.636719 C 995.816406 306.078125 997.921875 310.777344 997.921875 316.011719 L 997.921875 398.101562 C 997.921875 399.894531 997.574219 401.6875 996.960938 403.648438 C 996.398438 405.472656 996.726562 407.484375 997.875 409.023438 C 999.003906 410.5625 1000.8125 411.476562 1002.730469 411.476562 L 1002.730469 405.441406 " fill-opacity="1" fill-rule="nonzero"/><path fill="rgb(100%, 100%, 100%)" d="M 295.324219 360.734375 L 295.324219 314.3125 C 295.324219 291.355469 276.710938 272.730469 253.730469 272.730469 L 251.359375 272.730469 C 228.390625 272.730469 209.78125 291.355469 209.78125 314.3125 L 209.78125 360.734375 L 184.082031 360.734375 L 184.082031 404.71875 L 323.429688 404.71875 L 323.429688 360.734375 L 295.324219 360.734375 " fill-opacity="1" fill-rule="nonzero"/><g clip-path="url(#clip-1)"><path fill="rgb(22.349548%, 20.779419%, 21.179199%)" d="M 295.324219 360.734375 L 301.359375 360.734375 L 301.359375 314.3125 C 301.34375 288.023438 280.042969 266.699219 253.730469 266.699219 L 251.359375 266.699219 C 225.058594 266.699219 203.746094 288.023438 203.746094 314.3125 L 203.746094 354.699219 L 184.082031 354.699219 C 182.492188 354.699219 180.9375 355.328125 179.804688 356.460938 C 178.691406 357.589844 178.046875 359.128906 178.046875 360.734375 L 178.046875 404.71875 C 178.046875 406.304688 178.691406 407.863281 179.804688 408.976562 C 180.9375 410.109375 182.492188 410.753906 184.082031 410.753906 L 323.429688 410.753906 C 325.015625 410.753906 326.570312 410.109375 327.703125 408.976562 C 328.820312 407.863281 329.464844 406.304688 329.464844 404.71875 L 329.464844 360.734375 C 329.464844 359.128906 328.820312 357.589844 327.703125 356.460938 C 326.570312 355.328125 325.015625 354.699219 323.429688 354.699219 L 295.324219 354.699219 L 295.324219 360.734375 L 301.359375 360.734375 L 295.324219 360.734375 L 295.324219 366.769531 L 317.390625 366.769531 L 317.390625 398.683594 L 190.117188 398.683594 L 190.117188 366.753906 L 209.78125 366.769531 C 211.367188 366.769531 212.910156 366.125 214.042969 364.992188 C 215.171875 363.859375 215.816406 362.320312 215.816406 360.734375 L 215.816406 314.3125 C 215.816406 304.476562 219.777344 295.628906 226.222656 289.183594 C 232.683594 282.742188 241.515625 278.765625 251.359375 278.765625 L 253.730469 278.765625 C 263.570312 278.765625 272.421875 282.742188 278.867188 289.183594 C 285.308594 295.628906 289.269531 304.476562 289.285156 314.3125 L 289.285156 360.734375 C 289.285156 362.320312 289.929688 363.859375 291.046875 364.992188 C 292.179688 366.125 293.71875 366.769531 295.324219 366.769531 L 295.324219 360.734375 " fill-opacity="1" fill-rule="nonzero"/></g><path fill="rgb(100%, 100%, 100%)" d="M 1241.3125 360.734375 L 1241.3125 314.3125 C 1241.3125 291.355469 1222.683594 272.730469 1199.734375 272.730469 L 1197.359375 272.730469 C 1174.378906 272.730469 1155.769531 291.355469 1155.769531 314.3125 L 1155.769531 360.734375 L 1130.070312 360.734375 L 1130.070312 404.71875 L 1269.402344 404.71875 L 1269.402344 360.734375 L 1241.3125 360.734375 " fill-opacity="1" fill-rule="nonzero"/><g clip-path="url(#clip-2)"><path fill="rgb(22.349548%, 20.779419%, 21.179199%)" d="M 1241.3125 360.734375 L 1247.347656 360.734375 L 1247.347656 314.3125 C 1247.332031 288.023438 1226.03125 266.699219 1199.734375 266.699219 L 1197.359375 266.699219 C 1171.03125 266.699219 1149.734375 288.023438 1149.734375 314.3125 L 1149.734375 354.699219 L 1130.070312 354.699219 C 1128.480469 354.699219 1126.941406 355.328125 1125.808594 356.460938 C 1124.675781 357.589844 1124.03125 359.128906 1124.03125 360.734375 L 1124.03125 404.71875 C 1124.03125 406.304688 1124.675781 407.863281 1125.808594 408.976562 C 1126.941406 410.109375 1128.480469 410.753906 1130.070312 410.753906 L 1269.402344 410.753906 C 1271.003906 410.753906 1272.542969 410.109375 1273.675781 408.976562 C 1274.808594 407.863281 1275.4375 406.304688 1275.4375 404.71875 L 1275.4375 360.734375 C 1275.4375 359.128906 1274.808594 357.589844 1273.675781 356.460938 C 1272.542969 355.328125 1271.003906 354.699219 1269.402344 354.699219 L 1241.3125 354.699219 L 1241.3125 360.734375 L 1247.347656 360.734375 L 1241.3125 360.734375 L 1241.3125 366.769531 L 1263.363281 366.769531 L 1263.363281 398.683594 L 1136.105469 398.683594 L 1136.105469 366.753906 L 1155.769531 366.769531 C 1157.355469 366.769531 1158.898438 366.125 1160.027344 364.992188 C 1161.160156 363.859375 1161.804688 362.320312 1161.804688 360.734375 L 1161.804688 314.3125 C 1161.804688 304.476562 1165.765625 295.628906 1172.210938 289.183594 C 1178.65625 282.742188 1187.503906 278.765625 1197.359375 278.765625 L 1199.734375 278.765625 C 1209.558594 278.765625 1218.410156 282.742188 1224.851562 289.183594 C 1231.296875 295.628906 1235.257812 304.476562 1235.273438 314.3125 L 1235.273438 360.734375 C 1235.273438 362.320312 1235.917969 363.859375 1237.035156 364.992188 C 1238.152344 366.125 1239.707031 366.769531 1241.3125 366.769531 L 1241.3125 360.734375 " fill-opacity="1" fill-rule="nonzero"/></g><path fill="rgb(100%, 100%, 100%)" d="M 1446.191406 525.671875 C 1446.191406 539.4375 1434.996094 550.613281 1421.210938 550.613281 L 32.285156 550.613281 C 18.5 550.613281 7.324219 539.4375 7.324219 525.671875 L 7.324219 478.765625 C 7.324219 465.015625 18.5 453.84375 32.285156 453.84375 L 1421.210938 453.84375 C 1434.996094 453.84375 1446.191406 465.015625 1446.191406 478.765625 L 1446.191406 525.671875 " fill-opacity="1" fill-rule="nonzero"/><path fill="rgb(22.349548%, 20.779419%, 21.179199%)" d="M 1446.191406 525.671875 L 1440.152344 525.671875 C 1440.136719 530.90625 1438.03125 535.589844 1434.605469 539.03125 C 1431.148438 542.472656 1426.460938 544.578125 1421.210938 544.578125 L 32.285156 544.578125 C 27.035156 544.578125 22.335938 542.472656 18.90625 539.03125 C 15.464844 535.589844 13.359375 530.90625 13.359375 525.671875 L 13.359375 478.765625 C 13.359375 473.53125 15.464844 468.847656 18.890625 465.40625 C 22.335938 461.980469 27.035156 459.875 32.285156 459.875 L 1421.210938 459.875 C 1426.460938 459.875 1431.164062 461.980469 1434.605469 465.40625 C 1438.03125 468.847656 1440.136719 473.53125 1440.152344 478.765625 L 1440.152344 525.671875 L 1452.226562 525.671875 L 1452.226562 478.765625 C 1452.210938 461.667969 1438.332031 447.808594 1421.210938 447.808594 L 32.285156 447.808594 C 15.167969 447.808594 1.289062 461.667969 1.289062 478.765625 L 1.289062 525.671875 C 1.289062 542.769531 15.152344 556.648438 32.285156 556.648438 L 1421.210938 556.648438 C 1438.332031 556.632812 1452.210938 542.769531 1452.226562 525.671875 L 1446.191406 525.671875 " fill-opacity="1" fill-rule="nonzero"/></svg>